<?xml version="1.0" encoding="utf-8"?>
<!-- Generator: Adobe Illustrator 26.3.1, SVG Export Plug-In . SVG Version: 6.00 Build 0)  -->
<svg version="1.1" id="Layer_1" xmlns="http://www.w3.org/2000/svg" xmlns:xlink="http://www.w3.org/1999/xlink" x="0px" y="0px"
	 viewBox="0 0 395.2 195" style="enable-background:new 0 0 395.2 195;" xml:space="preserve">
<style type="text/css">
	.st0{fill:#006A37;}
	.st1{fill:#152E54;}
	.st2{fill:#90BC3F;}
	.st3{fill:#00438C;}
	.st4{fill:#FFFFFF;}
</style>
<g>
	<g>
		<g>
			<path class="st0" d="M229.5,159.7c0,0,2.6,1.2-10.4,3.3c-8.2,1.3-11.4,3.8-12.7,6.4c-0.8,1.7-7.1,7.8-10.7,9.7
				c-3.7,2-11.8-2.7-16.7-0.4c-5.8,2.8-13.2,0.8-19.3,2.8c-1.5,0.5-9.9,12.7-5.1,13c4.8,0.3,29.3-7.9,29.3-7.9l24.5-5.2l11.7-9.2
				l8.9-10.2L229.5,159.7z"/>
			<g>
				<g>
					<path class="st1" d="M38,188c-20.9,0-38.4-17-38.4-37.9s17.5-37.9,38.4-37.9c14.9,0,27.8,8.5,34.2,20.8l-16.9,7.7
						c-3.2-6.2-9.7-10.4-17.4-10.4c-10.9,0-19.7,8.8-19.7,19.8c0,11,8.8,19.9,19.7,19.9c7.7,0,14.1-4.2,17.4-10.4l17,7.5
						C66,179.5,52.9,188,38,188z"/>
				</g>
				<g>
					<path class="st1" d="M145.6,155.4c0,18.5-11.7,32.8-33.3,32.8c-21.7,0-33.2-14.3-33.2-32.8V115h18.6v39.3
						c0,10.4,5,16.1,14.7,16.1c9.7,0,14.8-5.7,14.8-16.1V115h18.5V155.4z"/>
				</g>
				<g>
					<path class="st1" d="M241.8,115h15.8l32.3,40.9V115h18.5v73.2h-15.7l-32.3-40.8v40.8h-18.6V115z"/>
				</g>
				<g>
					<path class="st1" d="M197.6,115.8c19.9,4.2,32.8,23.7,28.7,43.3c-4.1,19.6-23.6,32.2-43.5,28c-19.6-4.2-32.8-23.7-28.7-43.3
						C158.1,124.2,177.9,111.6,197.6,115.8z M186.3,170.1c10.5,2.2,20.2-4.4,22.4-14.7c2.2-10.4-4.1-20.3-14.6-22.6
						c-10.2-2.2-20.2,4.4-22.4,14.7C169.5,157.9,176.1,167.9,186.3,170.1z"/>
				</g>
				<g>
					<polygon class="st1" points="198.5,109.2 178.6,112.2 177.2,105.3 200.4,99.3 219.5,113.2 215.9,119.4 					"/>
				</g>
				<g>
					<polygon class="st1" points="218.8,121.4 230,99.1 236.2,101.1 224.5,124.8 					"/>
				</g>
			</g>
			<g>
				<g>
					<path class="st2" d="M232.1,157.3c-0.6,0.7-0.9,1.5-1.7,1.6l-9.5,1.7c-1.3,0.2-2.5,0.9-3.3,2l-0.4,0.5c0,0-6.9,6-8.4,7
						c0,0-0.6,0.5,0.3,1.7c0.9,1.2,1.7,3.6,1.7,3.6l-0.7,0.1c0,0-3-3.4-4.4-3.5c-1.4-0.1-4.1,0.6-5.1,1.1c-1,0.5-2.3,2.9-3.9,3.2
						c-1.6,0.3-4,1-6.1,1.3c-2.1,0.3-4.3,0.4-8.5,2.2s-9.3,4.2-9.3,4.2s-4.8,0.1-8.8,0.8c-4,0.7-7.4-0.9-10,4.9c0,0-2.7,5.3-1.3,5
						c2.3-0.4,33.7,0.8,49.3-6.1c16.7-7.3,21.1-10.8,30.2-26.1c0.4-0.7,0.6-1.2,0.3-2l0.2-0.7c0,0,0.4-0.5,5.4-10.1l-1.2-1.1
						C236.5,148,235.1,153.8,232.1,157.3z"/>
				</g>
				<path class="st0" d="M238.4,150c-1.8,3.3-3.7,6.7-5.4,10c-0.3,0.6-0.1,1.2,0,1.8c0,0.2,0,0.4-0.1,0.5c-0.9,1.7-1.8,3.5-2.8,5.2
					c-5.6,9.7-15.2,16.5-25.4,20.7c-16.4,7.1-34.4,6.9-51.9,6.8c-0.2,0-1.1-0.6-1.1-0.7c0.1-0.1,0.1-0.1,0.1-0.1
					c8.7-0.5,18.4-0.2,27.1-1.3c18.9-2.2,39.2-9.6,50.3-25.9c1-1.5,2-3.3,2.9-4.9l0.1-0.1c0,0,0,0.1,0,0.1c0,0,0,0,0,0c0,0,0,0,0,0
					c-0.1-0.7-0.3-1.6,0.1-2.3c0.5-1.1,1.8-3.3,2.3-4.4c1.1-1.9,2.2-3.9,3.3-5.8c0.2,0.2,0.2,0.2,0.5,0.4V150z"/>
			</g>
		</g>
		<g>
			<g>
				<path class="st1" d="M66.8,91.8H48.1V64.7H18.5v27.1H0v-73h18.5v28.4h29.6V18.9h18.6V91.8z"/>
			</g>
			<g>
				<g>
					<path class="st1" d="M151.6,91.8h-20.3l-4-10.7H98.7l-4,10.7H74.4l29.4-73h18.4L151.6,91.8z M105,64.2h15.9L113,42.8L105,64.2z
						"/>
				</g>
				<g>
					<polygon class="st1" points="96.3,13 97.4,0 129.1,7.2 127,16.1 					"/>
				</g>
			</g>
			<g>
				<path class="st1" d="M159.2,18.9H175l32.4,40.8V18.9h18.5v73h-15.7l-32.4-40.7v40.7h-18.6V18.9z"/>
			</g>
			<g>
				<path class="st1" d="M307.9,49.5v42.6h-14.6V84c-3.5,5.2-10.9,7.9-18.3,7.9c-21,0-38.6-16.4-38.6-36.5
					c0-20.1,17.5-36.5,38.6-36.5c12.5,0,23.7,5.9,30.7,14.7l-15.2,9.9c-3.6-4.4-9.2-7.2-15.6-7.2c-11,0-19.7,8.5-19.7,19.1
					c0,10.6,8.7,19.1,19.7,19.1c6.5,0,12.1-3.2,15.6-8v-2h-17.6v-15H307.9z"/>
			</g>
		</g>
	</g>
	<g>
		<path class="st3" d="M387.3,92.4h-51.5c-4.4,0-7.9-3.5-7.9-7.9V27.2c0-4.4,3.5-7.9,7.9-7.9h51.5c4.4,0,7.9,3.5,7.9,7.9v57.3
			C395.2,88.8,391.7,92.4,387.3,92.4z"/>
		<g>
			<g>
				<path class="st4" d="M388.3,67.8h-51.8c-0.8,0-1.5-0.7-1.5-1.5l0-13c0-14.8,11.5-27.5,26.3-28c15.6-0.6,28.4,11.9,28.4,27.4
					v13.6C389.8,67.1,389.2,67.8,388.3,67.8z M337,66.7h51c0.4,0,0.8-0.4,0.8-0.8V53.3c0-14.2-11-26.4-25.3-26.9
					c-15-0.6-27.3,11.4-27.3,26.3v13.2C336.2,66.3,336.5,66.7,337,66.7z"/>
			</g>
			<g>
				<path class="st4" d="M344.5,43.9c0.2,0.5,0.2,0.8-0.2,1.7l-0.7,1.9l1.8,0.6l-0.3,0.8l-5-1.7l1.1-3c0.2-0.6,0.3-0.7,0.6-1
					c0.4-0.4,1.1-0.4,1.6-0.2C344,43.1,344.3,43.4,344.5,43.9z M342.1,44.6l-0.7,2l1.5,0.5l0.7-1.9c0.3-0.9,0.3-1.2-0.3-1.4
					C342.6,43.6,342.3,43.9,342.1,44.6z"/>
				<path class="st4" d="M350.3,40l-1.7-1.5l-2.1,2.4l1.7,1.5l-0.6,0.7l-4-3.5l0.6-0.7l1.6,1.4l2.1-2.4l-1.6-1.4l0.6-0.7l4,3.5
					L350.3,40z"/>
				<path class="st4" d="M355,37.1c-1.5,0.7-3.3,0.4-4.1-1.2l-0.1-0.1c-0.8-1.6,0.3-3.1,1.8-3.8c1.5-0.7,3.3-0.5,4.1,1.1
					C357.6,34.7,356.5,36.4,355,37.1z M353.1,32.8c-1,0.5-1.9,1.5-1.3,2.7c0.5,1.1,1.8,1.2,2.9,0.7c1-0.5,1.9-1.6,1.3-2.7
					C355.4,32.3,354.1,32.3,353.1,32.8z"/>
				<path class="st4" d="M364.7,35.3l-3.2-4l-0.1,3.9l-0.9,0l0.2-5.3l0.9,0l3.1,4l0.1-3.9l0.9,0l-0.2,5.3L364.7,35.3z"/>
				<path class="st4" d="M369.9,37c-1.5-0.7-2.5-2.2-1.7-3.8c0.7-1.6,2.6-1.9,4.1-1.2c0.9,0.4,1.4,1,1.9,1.8l-0.8,0.4
					c-0.5-0.8-0.7-1.1-1.6-1.5c-1-0.5-2.3-0.3-2.8,0.8c-0.5,1.1,0.3,2.2,1.3,2.6c0.7,0.3,1,0.3,1.8,0.3l0.3-0.7l-1.4-0.6l0.4-0.8
					l2.2,1l-0.9,2C371.7,37.5,370.8,37.5,369.9,37z"/>
				<path class="st4" d="M375,40.8c-1.1-1.2-1.4-3-0.2-4.2l0.1-0.1c1.3-1.2,3.1-0.6,4.2,0.5c1.1,1.2,1.5,3,0.2,4.2
					C378,42.5,376.2,42,375,40.8z M378.5,37.6c-0.8-0.8-2-1.3-3-0.4c-0.9,0.9-0.6,2.1,0.2,2.9c0.8,0.8,2.1,1.3,3,0.4
					C379.6,39.7,379.3,38.5,378.5,37.6z"/>
				<path class="st4" d="M379.5,48.5l2.6-4.4l-3.7,1.3l-0.3-0.8l5-1.8l0.3,0.9l-2.6,4.4l3.7-1.3l0.3,0.8l-5,1.8L379.5,48.5z"/>
			</g>
			<g>
				<g>
					<path class="st4" d="M353.2,31.3l-0.6-0.2l-0.2,0.6l-0.6,0.3l0.4-1.2l0.4-0.2l1.2,0.4L353.2,31.3z"/>
				</g>
			</g>
			<g>
				<polygon class="st4" points="354.6,30 353.8,30.7 353.4,30.6 354.2,29.9 				"/>
			</g>
			<g>
				<path class="st4" d="M347.1,63.6c-1.1,0-2.2-0.2-3.2-0.9l0.4-0.8c0.9,0.5,1.6,0.8,2.6,0.8c1,0,1.7-0.1,1.7-0.8
					c0-0.1,0-0.3-0.1-0.4c-0.2-0.3-0.7-0.3-1.5-0.3c-1.6,0-1.8-0.1-2.1-0.2c-0.5-0.2-0.7-0.7-0.7-1.2c0-1.3,1.3-1.7,2.4-1.7
					c1,0,1.8,0.2,2.7,0.7l-0.4,0.8c-0.8-0.4-1.4-0.6-2.2-0.6c-0.9,0-1.4,0.2-1.4,0.7c0,0.1,0,0.3,0.1,0.4c0.1,0.2,0.5,0.3,1.5,0.3
					c1.4,0,2.7,0.1,2.7,1.5C349.6,63.2,348.3,63.6,347.1,63.6z"/>
				<path class="st4" d="M353.4,59v4.4h-0.9V59h-2v-0.9h4.9V59H353.4z"/>
				<path class="st4" d="M361.3,63.4l-1.5-2.2h-1.8v2.2H357v-5.3h3.3c1.1,0,2,0.3,2,1.6c0,0.9-0.5,1.4-1.4,1.5l1.5,2.2H361.3z
					 M360.3,59h-2.4v1.3h2.4c0.5,0,1-0.1,1-0.7C361.4,59.2,361.1,59,360.3,59z"/>
				<path class="st4" d="M364,63.4v-5.3h4.6V59h-3.7v1.2h2.1v0.9h-2.1v1.4h3.8v0.9H364z"/>
				<path class="st4" d="M370.5,63.4v-5.3h4.6V59h-3.7v1.2h2.1v0.9h-2.1v1.4h3.8v0.9H370.5z"/>
				<path class="st4" d="M378.9,59v4.4H378V59h-2v-0.9h4.9V59H378.9z"/>
			</g>
			<g>
				<g>
					<path class="st4" d="M355.8,55.1c-1.2,0-2.4-0.1-3.6-0.5c-1.3-0.4-1.9-0.7-2.9-1.5l0.9-1.4c1.9,1.2,3.3,1.6,5.6,1.6
						c0.7,0,1.5-0.1,2.2-0.2c0.9-0.2,3-0.7,3-1.9c0-1.2-1.6-1.8-2.6-2c-0.7-0.2-1.3-0.2-2-0.2h-1.2v-1.7h1.2c1.1,0,3.8-0.3,3.8-1.9
						c0-1.6-3.1-1.8-4.2-1.8c-1.8,0-2.8,0.4-4.4,1.1l-0.8-1.5c1.8-1,3.2-1.4,5.2-1.4c2.1,0,5.8,0.7,5.8,3.4c0,1.2-0.7,2-1.6,2.7
						c1.2,0.7,2.4,1.6,2.4,3.1C362.7,54.4,358.2,55.1,355.8,55.1z"/>
					<path class="st4" d="M366.9,54.8h-2l7.5-10.8h-9.3v-1.7h10.5l1,1.3L366.9,54.8z"/>
				</g>
				<g>
					<path class="st4" d="M373.2,49.6v2.1h-0.5v-2.1h-0.9v-0.5h2.4v0.5H373.2z"/>
					<path class="st4" d="M373.6,54.8v-1.1h-1.4v1.1h-0.5v-2.6h0.5v1h1.4v-1h0.5v2.6H373.6z"/>
				</g>
			</g>
		</g>
		<g>
			<g>
				<path class="st4" d="M342.4,80.4h-0.9l-1.7-3.6h0.8l1.4,2.9l1.4-2.9h0.8L342.4,80.4z"/>
				<path class="st4" d="M344.9,80.4v-3.6h0.7v3.6H344.9z"/>
				<path class="st4" d="M347.2,80.4v-3.6h3.2v0.7h-2.5v0.7h1.3v0.7h-1.3v0.8h2.6v0.7H347.2z"/>
				<path class="st4" d="M353,77.5v2.9h-0.7v-2.9H351v-0.7h3.4v0.7H353z"/>
				<path class="st4" d="M358.2,80.4l-2-2.5v2.5h-0.7v-3.6h0.7l2,2.4v-2.4h0.7v3.6H358.2z"/>
				<path class="st4" d="M363.3,80.4l-0.4-0.8h-2.1l-0.4,0.8h-0.8l1.8-3.6h1l1.8,3.6H363.3z M361.9,77.5l-0.7,1.4h1.4L361.9,77.5z"
					/>
				<path class="st4" d="M368.2,80.4v-2.3L367,80l-1.3-1.8v2.3H365v-3.6h0.7l1.3,1.8l1.3-1.8h0.7v3.6H368.2z"/>
				<path class="st4" d="M370.6,80.4v-3.6h3.2v0.7h-2.5v0.7h1.3v0.7h-1.3v0.8h2.6v0.7H370.6z"/>
				<path class="st4" d="M376.4,80.6c-0.9,0-1.3-0.1-2-0.6l0.3-0.7c0.7,0.4,1.1,0.6,1.9,0.6c0.3,0,0.9-0.1,0.9-0.5
					c0-0.3-0.3-0.3-0.5-0.4c-0.4,0-0.7,0-1.1,0c-0.7,0-1.3-0.4-1.3-1.1c0-0.9,1-1.1,1.7-1.1c0.7,0,1.2,0.2,1.7,0.5l-0.3,0.6
					c-0.5-0.3-1-0.4-1.6-0.4c-0.3,0-0.8,0.1-0.8,0.4c0,0.3,0.4,0.3,0.6,0.3c0.3,0,0.6,0,0.9,0c0.7,0,1.4,0.3,1.4,1.1
					C378.3,80.4,377.2,80.6,376.4,80.6z"/>
				<path class="st4" d="M379.4,80.4v-3.6h3.2v0.7h-2.5v0.7h1.3v0.7h-1.3v0.8h2.6v0.7H379.4z"/>
				<path class="st4" d="M350.9,86c-1.1,0-2.2-0.6-2.2-1.9c0-1.2,1-2,2.2-2c0.8,0,1.2,0.2,1.9,0.7l-0.4,0.6
					c-0.4-0.4-0.9-0.6-1.4-0.6c-0.7,0-1.4,0.5-1.4,1.2c0,0.8,0.8,1.2,1.5,1.2c0.7,0,1-0.1,1.6-0.5l0.3,0.7
					C352.1,85.8,351.7,86,350.9,86z"/>
				<path class="st4" d="M357,85.4c-0.3,0.4-1,0.6-1.5,0.6c-1,0-1.7-0.5-1.7-1.5v-2.2h0.7v2.2c0,0.7,0.5,0.8,1.1,0.8
					c0.2,0,0.5,0,0.7-0.2c0.2-0.1,0.3-0.3,0.3-0.6v-2.2h0.7v2.2C357.3,84.8,357.3,85.1,357,85.4z"/>
				<path class="st4" d="M359,85.8v-3.6h0.7v3.6H359z"/>
				<path class="st4" d="M362.7,86c-0.9,0-1.3-0.1-2-0.6l0.3-0.7c0.7,0.4,1.1,0.6,1.9,0.6c0.3,0,0.9-0.1,0.9-0.5
					c0-0.3-0.3-0.3-0.5-0.4c-0.4,0-0.7,0-1.1,0c-0.7,0-1.3-0.4-1.3-1.1c0-0.9,1-1.1,1.7-1.1c0.7,0,1.2,0.2,1.7,0.5l-0.3,0.6
					c-0.5-0.3-1-0.4-1.6-0.4c-0.3,0-0.8,0.1-0.8,0.4c0,0.3,0.4,0.3,0.6,0.3c0.3,0,0.6,0,0.9,0c0.7,0,1.4,0.3,1.4,1.1
					C364.6,85.8,363.5,86,362.7,86z"/>
				<path class="st4" d="M365.7,85.8v-3.6h0.7v3.6H365.7z"/>
				<path class="st4" d="M370.7,85.8l-2-2.5v2.5H368v-3.6h0.7l2,2.4v-2.4h0.7v3.6H370.7z"/>
				<path class="st4" d="M373.1,85.8v-3.6h3.2v0.7h-2.5v0.7h1.3v0.7h-1.3v0.8h2.6v0.7H373.1z"/>
			</g>
		</g>
	</g>
</g>
</svg>
