<?xml version="1.0" encoding="utf-8"?>
<!-- Generator: Adobe Illustrator 26.3.1, SVG Export Plug-In . SVG Version: 6.00 Build 0)  -->
<svg version="1.1" id="Layer_1" xmlns="http://www.w3.org/2000/svg" xmlns:xlink="http://www.w3.org/1999/xlink" x="0px" y="0px"
	 viewBox="0 0 73.4 87" style="enable-background:new 0 0 73.4 87;" xml:space="preserve">
<style type="text/css">
	.st0{fill:#FFFFFF;}
	.st1{fill:#D9C692;}
	.st2{fill:#152E54;}
	.st3{fill:#142E54;}
</style>
<g>
	<path class="st0" d="M64.5,81.3H8.9c-4.7,0-8.6-3.9-8.6-8.6V17.2c0-4.7,3.9-8.6,8.6-8.6h55.6c4.7,0,8.6,3.9,8.6,8.6v55.6
		C73,77.5,69.2,81.3,64.5,81.3z"/>
	<path class="st1" d="M64.9,81.6H8.5c-4.6,0-8.4-3.8-8.4-8.4V16.8c0-4.6,3.8-8.4,8.4-8.4h56.3c4.6,0,8.4,3.8,8.4,8.4v56.3
		C73.3,77.8,69.5,81.6,64.9,81.6z M8.5,8.9c-4.4,0-7.9,3.6-7.9,7.9v56.3c0,4.4,3.6,7.9,7.9,7.9h56.3c4.4,0,7.9-3.6,7.9-7.9V16.8
		c0-4.4-3.6-7.9-7.9-7.9H8.5z"/>
	<path class="st1" d="M64,76.4H9.4v-0.6c0-2-1.6-3.5-3.5-3.5H5.3V17.7h0.6c2,0,3.5-1.6,3.5-3.5v-0.6H64v0.6c0,2,1.6,3.5,3.5,3.5h0.6
		v54.6h-0.6c-2,0-3.5,1.6-3.5,3.5V76.4z M10.5,75.2h52.3c0.3-2.1,2-3.8,4.1-4.1V18.8c-2.1-0.3-3.8-2-4.1-4.1H10.5
		c-0.3,2.1-2,3.8-4.1,4.1v52.3C8.6,71.4,10.3,73.1,10.5,75.2z"/>
	<g>
		<g>
			<path class="st1" d="M26.3,54.3C26.3,54.4,26.3,54.4,26.3,54.3C26.3,54.4,26.3,54.4,26.3,54.3L26.3,54.3z"/>
			<path class="st1" d="M24.7,51.7c-1,0.3-1.8,0.7-2.3,1.1c-0.8,0.6-0.8,0.8-0.8,0.8c0,0,0,0.2,0.1,0.5l0,0.1l-0.3,0.3l0.3,0.4
				l0.3-0.3c0-0.2-0.1-0.4-0.1-0.5c0-0.2,0.3-0.6,0.9-1c0.6-0.4,1.4-0.8,2.4-1.2c1-0.3,2-0.5,3.2-0.5c0.7,0,1.3,0.1,1.8,0.2
				c-0.4-0.3-1.2-0.5-2.3-0.5C26.7,51.2,25.7,51.4,24.7,51.7z"/>
			<path class="st1" d="M36.3,52.6c0,1.5-0.7,2.7-2.1,3.7c0.2,0.1,0.3,0.2,0.4,0.3c1.3-0.9,1.9-2.1,1.9-3.4c0-0.9-0.2-1.8-0.6-2.5
				C36.2,51.2,36.3,51.9,36.3,52.6z"/>
			<path class="st1" d="M26.5,58.7c-0.2,0-0.3,0.1-0.3,0.1c0,0-0.1,0.2-0.1,0.6v0.3h-0.2V60h0.4c0-0.4,0.1-0.7,0.2-0.8
				c0.1-0.1,0.3-0.2,0.5-0.2h2.2c0.5,0,1,0.1,1.3,0.2c-0.5-0.3-1.1-0.4-1.9-0.4H26.5z"/>
			<path class="st1" d="M55.9,47.7v4.2L49,64.8c0,0.1-0.2,0.3-0.4,0.7c-0.3,0.5-0.3,0.6-0.3,0.6c0,0.1,0,0.2,0.3,0.3
				c0-0.1,0.1-0.3,0.3-0.6c0.2-0.4,0.3-0.6,0.4-0.7l6.8-12.8v-4.7H55.9z"/>
			<path class="st1" d="M49.2,67.5h-7.5v0.3h7.8v-0.4c-0.1,0-0.2,0-0.3,0V67.5z"/>
			<path class="st1" d="M49.6,52.6H38.7c-0.1,0-0.4,0-0.4,0.6v0.3h-0.2v0.3h0.4c0-0.6,0.2-0.8,0.6-0.8h10.2L49.6,52.6z"/>
			<path class="st1" d="M21,60.2l0-0.6l-0.3-0.1l0,0.3C20.7,59.9,20.8,60.1,21,60.2C21,60.3,21,60.3,21,60.2z"/>
			<path class="st1" d="M37.3,61.1c0,1.3-0.4,2.5-1.3,3.5c-0.9,1-2,1.7-3.3,2.2c-1.3,0.5-2.7,0.7-4.2,0.7c-2.2,0-4.6-0.4-6.9-1.1
				c-0.1,0-0.5-0.2-2.2-0.8c-0.6-0.2-0.8-0.3-0.8-0.3c-0.1,0-0.3,0-0.4,0.3l-0.1,0.1l-0.1,0.2l0.4,0.1c0.2-0.3,0.4-0.4,0.7-0.4
				c0.1,0,0.4,0.1,0.9,0.3c1.4,0.5,2.1,0.8,2.1,0.8c2.3,0.7,4.6,1.1,6.8,1.1c1.4,0,2.8-0.2,4.1-0.7c1.3-0.5,2.4-1.2,3.2-2.1
				c0.8-0.9,1.3-2,1.3-3.3c0-0.9-0.2-1.7-0.6-2.3C37.2,59.8,37.3,60.4,37.3,61.1z"/>
		</g>
		<g>
			<path class="st2" d="M20.5,59.1l0,0.6c0,0.5,0.4,1,1.1,1.5c0.7,0.5,1.7,0.9,2.9,1.2c1.2,0.3,2.3,0.5,3.4,0.5c1.4,0,2.3-0.2,3-0.6
				c0.6-0.4,0.9-0.9,0.9-1.6c0-0.7-0.3-1.2-0.8-1.6c-0.5-0.4-1.3-0.6-2.2-0.6h-2.2c-0.2,0-0.4,0.1-0.5,0.2c-0.1,0.1-0.2,0.4-0.2,0.8
				h-0.4v-5.7h0.4c0,0.6,0.2,0.8,0.7,0.8h2.5c0.6,0,1.1-0.1,1.5-0.4C30.8,54,31,53.5,31,53c0-0.7-0.2-1.1-0.7-1.5
				C29.8,51.2,29,51,27.8,51c-1.1,0-2.2,0.2-3.2,0.5c-1,0.3-1.8,0.7-2.4,1.2c-0.6,0.4-0.9,0.8-0.9,1c0,0.1,0,0.3,0.1,0.5l-0.3,0.3
				L18,49.4l0.4-0.2c0.2,0.2,0.4,0.3,0.5,0.3c0.1,0,0.5-0.2,1.1-0.5c1.2-0.6,2.3-1.1,3.5-1.4c1.2-0.4,2.6-0.6,4.2-0.6
				c2.3,0,4.2,0.5,5.8,1.4c1.6,0.9,2.4,2.3,2.4,4.2c0,1.5-0.7,2.7-2.2,3.6v0.2c2.1,1,3.2,2.5,3.2,4.6c0,1.3-0.4,2.4-1.3,3.3
				c-0.8,0.9-1.9,1.6-3.2,2.1c-1.3,0.5-2.7,0.7-4.1,0.7c-2.2,0-4.5-0.4-6.8-1.1c0,0-0.8-0.3-2.1-0.8c-0.5-0.2-0.8-0.3-0.9-0.3
				c-0.3,0-0.5,0.1-0.7,0.4l-0.4-0.1l2.5-6.4L20.5,59.1z"/>
			<path class="st2" d="M38.1,53.2h-0.4v-6.1h0.4c0,0.6,0.2,0.9,0.6,0.9h15.8c0.4,0,0.6-0.3,0.6-0.8h0.4v4.7l-6.8,12.8
				c0,0.1-0.2,0.3-0.4,0.7c-0.2,0.4-0.3,0.6-0.3,0.8c0,0.4,0.3,0.6,0.8,0.7v0.4h-7.8v-0.4c0.4,0,0.8-0.3,1.1-0.9l7.8-13.5H38.7
				C38.3,52.3,38.1,52.6,38.1,53.2z"/>
		</g>
	</g>
	<g>
		<g>
			<polygon class="st1" points="57.9,27.8 53.2,28.4 53.2,28.6 53.5,28.7 58.1,28.1 58,27.6 58,27.6 			"/>
			<path class="st1" d="M33.9,31.5l-0.2,0c-0.3,0-0.4,0.1-0.4,0.1c0,0,0,0,0,0.1v3.9h0.3v-3.4c0-0.1,0-0.2,0.1-0.3
				c0.1-0.1,0.3-0.1,0.6-0.1v-0.3L33.9,31.5L33.9,31.5z"/>
			<path class="st1" d="M44,31.5c-0.3,0-0.4,0.1-0.4,0.1c0,0,0,0,0,0.1v12.2c0,0.1,0,0.1,0,0.1c0,0,0,0,0.2,0.1V32.2
				c0-0.1,0-0.2,0.1-0.3c0.1-0.1,0.3-0.1,0.6-0.1l0-0.3L44,31.5z"/>
			<polygon class="st1" points="52.7,29.6 48.9,30.6 49,30.8 52.9,29.9 57,30.9 57.2,30.3 56.9,30.2 56.8,30.7 			"/>
			<path class="st1" d="M49,38.3c0-0.8,0.2-1.5,0.6-2.1c0.4-0.6,0.9-1,1.5-1.3c0.6-0.3,1.3-0.5,2.1-0.5c0.6,0,1.1,0.1,1.6,0.3
				c-0.1,0-0.1-0.1-0.2-0.1c-0.6-0.3-1.2-0.4-1.9-0.4s-1.4,0.1-1.9,0.4c-0.6,0.3-1.1,0.7-1.4,1.2c-0.3,0.5-0.5,1.2-0.5,1.9
				c0,0.7,0.2,1.3,0.5,1.8C49.1,39.2,49,38.8,49,38.3z"/>
			<path class="st1" d="M33.2,39.3v4.6c0,0.1,0,0.1,0,0.1c0,0,0,0,0.2,0.1v-4.5h5.8v-0.3H33.2z"/>
			<path class="st1" d="M44.2,44.9h-4.9v0.3h5.2v-0.3C44.4,44.9,44.3,44.9,44.2,44.9L44.2,44.9z"/>
			<path class="st1" d="M33.9,44.9h-4.9v0.3h5.2v-0.3C34,44.9,33.9,44.9,33.9,44.9L33.9,44.9z"/>
			<path class="st1" d="M60.3,35c0.3,0.8,0.5,1.8,0.5,2.8c0,1.5-0.4,2.9-1.1,4c-0.7,1.1-1.7,1.9-3,2.5c-1.2,0.6-2.6,0.8-4.1,0.8
				c-1.3,0-2.6-0.2-3.7-0.7c0.1,0,0.2,0.1,0.3,0.1c1.2,0.5,2.5,0.8,4,0.8c1.5,0,2.8-0.3,4-0.8c1.2-0.5,2.1-1.4,2.8-2.4
				c0.7-1.1,1-2.3,1-3.8C61,37,60.8,36,60.3,35z"/>
			<path class="st1" d="M27.9,33.6C27.9,33.6,27.9,33.6,27.9,33.6c0.2,0.5,0.3,1.1,0.3,1.7c0,0.8-0.2,1.6-0.6,2.3
				c-0.4,0.7-1,1.3-1.7,1.7c-0.8,0.4-1.7,0.6-2.8,0.6h-4.3v4c0,0.1,0,0.1,0,0.1c0,0,0,0,0.2,0.1v-3.9h4.6c1,0,1.9-0.2,2.6-0.6
				c0.7-0.4,1.3-0.9,1.6-1.6c0.4-0.7,0.6-1.4,0.6-2.2C28.5,35,28.3,34.3,27.9,33.6z"/>
			<path class="st1" d="M19.5,44.9h-4.9v0.3h5.2v-0.3C19.7,44.9,19.6,44.9,19.5,44.9L19.5,44.9z"/>
			<path class="st1" d="M19.1,34.4h3.8c0.4,0,0.7,0,0.9,0.1c0,0,0,0-0.1-0.1c-0.3-0.2-0.8-0.3-1.4-0.3h-3.6v2.5h0.3V34.4z"/>
		</g>
		<g>
			<path class="st3" d="M18.7,44.2c0.1,0.1,0.3,0.1,0.6,0.1v0.3h-5.2v-0.3c0.3,0,0.5-0.1,0.6-0.1c0.1-0.1,0.1-0.2,0.1-0.3V31.7
				c0-0.1,0-0.2-0.1-0.3c-0.1-0.1-0.3-0.1-0.6-0.1v-0.3h9.1c1,0,1.9,0.2,2.6,0.6c0.7,0.4,1.3,0.9,1.6,1.6c0.4,0.7,0.6,1.4,0.6,2.2
				c0,0.8-0.2,1.5-0.6,2.2c-0.4,0.7-0.9,1.2-1.6,1.6c-0.7,0.4-1.6,0.6-2.6,0.6h-4.6v4.3C18.6,44,18.6,44.1,18.7,44.2z M22.4,36.8
				c0.7,0,1.2-0.1,1.5-0.4c0.3-0.3,0.5-0.6,0.5-1.2c0-0.5-0.2-0.9-0.5-1.1c-0.3-0.2-0.9-0.3-1.5-0.3h-3.8v3H22.4z"/>
			<path class="st3" d="M43.4,44.2c0.1,0.1,0.3,0.1,0.6,0.1v0.3h-5.2v-0.3c0.3,0,0.5-0.1,0.6-0.1c0.1-0.1,0.1-0.2,0.1-0.3V39h-6.6
				v4.8c0,0.1,0,0.2,0.1,0.3c0.1,0.1,0.3,0.1,0.6,0.1v0.3h-5.2v-0.3c0.3,0,0.5-0.1,0.6-0.1c0.1-0.1,0.1-0.2,0.1-0.3V31.7
				c0-0.1,0-0.2-0.1-0.3c-0.1-0.1-0.3-0.1-0.6-0.1v-0.3h5.2v0.3c-0.3,0-0.5,0.1-0.6,0.1c-0.1,0.1-0.1,0.2-0.1,0.3v4.2h6.6v-4.2
				c0-0.1,0-0.2-0.1-0.3c-0.1-0.1-0.3-0.1-0.6-0.1v-0.3H44v0.3c-0.3,0-0.5,0.1-0.6,0.1c-0.1,0.1-0.1,0.2-0.1,0.3v12.2
				C43.3,44,43.3,44.1,43.4,44.2z"/>
			<path class="st3" d="M56.6,31.6c1.2,0.5,2.1,1.4,2.8,2.4c0.7,1.1,1,2.3,1,3.8c0,1.5-0.4,2.8-1,3.8c-0.7,1.1-1.6,1.9-2.8,2.4
				c-1.2,0.5-2.5,0.8-4,0.8s-2.8-0.3-4-0.8c-1.2-0.5-2.1-1.4-2.8-2.4c-0.7-1.1-1-2.3-1-3.8c0-1.5,0.3-2.8,1-3.8
				c0.7-1.1,1.6-1.9,2.8-2.4c1.2-0.5,2.5-0.8,4-0.8S55.4,31,56.6,31.6z M50.6,34.4c-0.6,0.3-1.1,0.8-1.5,1.3
				c-0.4,0.6-0.6,1.3-0.6,2.1c0,0.8,0.2,1.5,0.6,2.1c0.4,0.6,0.9,1,1.5,1.3c0.6,0.3,1.3,0.5,2.1,0.5c0.7,0,1.4-0.2,2.1-0.5
				c0.6-0.3,1.1-0.7,1.5-1.3c0.4-0.6,0.6-1.3,0.6-2.1c0-0.8-0.2-1.5-0.6-2.1c-0.4-0.6-0.9-1-1.5-1.3c-0.6-0.3-1.3-0.5-2.1-0.5
				C51.9,33.9,51.2,34.1,50.6,34.4z"/>
			<path class="st3" d="M56.6,30.3l-4-1l-4,1l-0.1-0.6l4-1c0,0,0.1,0,0.1,0l4,1L56.6,30.3z"/>
			<rect x="52.7" y="27.3" transform="matrix(0.994 -0.1096 0.1096 0.994 -2.692 6.2089)" class="st3" width="4.9" height="0.6"/>
		</g>
	</g>
	<g>
		<g>
			<path class="st2" d="M21.2,25L21.2,25c0.1,0.1,0.1,0.2,0.3,0.2c0.1,0,0.3,0,0.4-0.1c0.2,0,0.3-0.1,0.5-0.2
				c0.2-0.1,0.3-0.2,0.3-0.3c0.1-0.1,0.1-0.2,0-0.3c0-0.1-0.1-0.1-0.2-0.1s-0.2,0-0.3,0.1l-0.3,0.2c0,0,0,0-0.1,0.1c0,0,0,0.1,0,0.1
				l-0.1,0L21.5,24l0.1,0c0,0.1,0.1,0.1,0.1,0.1l0.3-0.2c0.1,0,0.1-0.1,0.2-0.2c0-0.1,0-0.1,0-0.2c0-0.1-0.1-0.1-0.2-0.1
				c-0.1,0-0.2,0-0.3,0.1c-0.1,0.1-0.3,0.2-0.4,0.3c-0.1,0.1-0.2,0.2-0.2,0.3c0,0.1-0.1,0.2,0,0.2c0,0,0,0,0,0.1l0,0.1L20.3,24
				l0-0.1c0,0,0.1,0,0.1,0c0,0,0.1-0.1,0.1-0.1c0.1-0.2,0.2-0.3,0.3-0.4c0.1-0.1,0.3-0.3,0.5-0.4c0.3-0.2,0.6-0.2,0.8-0.2
				c0.3,0,0.5,0.1,0.6,0.4c0.1,0.2,0.1,0.4,0,0.6l0,0c0.3,0,0.6,0.1,0.7,0.3c0.1,0.2,0.1,0.3,0.1,0.5c0,0.2-0.1,0.3-0.3,0.5
				c-0.1,0.2-0.3,0.3-0.5,0.4c-0.3,0.2-0.6,0.3-0.9,0.3c0,0-0.1,0-0.3,0.1c-0.1,0-0.1,0-0.1,0c0,0-0.1,0.1-0.1,0.1l-0.1,0L21.2,25
				L21.2,25z"/>
		</g>
		<g>
			<path class="st2" d="M23.7,22.7L23.7,22.7l-0.3-0.8l0.1,0c0,0.1,0.1,0.1,0.1,0.1l2.2-0.8c0.1,0,0.1-0.1,0-0.1l0.1,0l0.2,0.6
				l-0.3,2.1c0,0,0,0.1,0,0.1c0,0.1,0,0.1,0,0.1c0,0.1,0.1,0.1,0.1,0l0,0.1l-1.1,0.4l0-0.1c0.1,0,0.1-0.1,0.1-0.2l0.4-2.2l-1.6,0.6
				C23.7,22.5,23.7,22.6,23.7,22.7z"/>
		</g>
		<g>
			<path class="st2" d="M27.8,20.2L27.8,20.2l0.1,0.4l0,0c0,0,0-0.1-0.1-0.1l-0.4,0.1l0.2,0.9c0,0,0,0,0.1,0l0,0l-0.5,0.1l0,0
				c0,0,0.1,0,0.1-0.1L27,20.8l-0.4,0.1c0,0,0,0,0,0.1l0,0l-0.1-0.4l0,0c0,0,0,0.1,0.1,0.1L27.8,20.2C27.8,20.3,27.8,20.2,27.8,20.2
				z"/>
		</g>
		<g>
			<path class="st2" d="M29,21.3C29,21.3,29,21.3,29,21.3C29,21.4,29.1,21.4,29,21.3L29,21.3l-0.5,0.2l0,0c0,0,0,0,0.1,0
				c0,0,0,0,0,0l-0.2-1.2c0,0,0,0,0,0c0,0,0,0-0.1,0l0,0l0.6-0.1l0,0c0,0,0,0-0.1,0c0,0,0,0,0,0l0.1,0.4l0.7-0.1L29.4,20
				c0,0,0,0,0,0c0,0,0,0-0.1,0l0,0l0.6-0.1l0,0c0,0,0,0-0.1,0c0,0,0,0,0,0l0.2,1.2c0,0,0,0,0,0c0,0,0,0,0.1,0l0,0l-0.6,0.1l0,0
				c0,0,0,0,0.1,0c0,0,0,0,0,0l-0.1-0.5l-0.7,0.1L29,21.3z"/>
		</g>
		<g>
			<path class="st2" d="M32.8,21.5c0,0,0,0.1,0,0.1c0,0,0.1,0.1,0.2,0.2c0.1,0.1,0.3,0.1,0.4,0.1c0.2,0,0.3,0,0.5,0
				c0.5,0,0.7-0.2,0.7-0.4c0-0.1-0.1-0.1-0.2-0.1c-0.1,0-0.3,0-0.5,0c-0.3,0-0.5,0-0.7-0.1c-0.2,0-0.4-0.1-0.5-0.2
				c-0.1-0.1-0.2-0.2-0.2-0.4c0-0.2,0-0.3,0.1-0.5c0.1-0.1,0.2-0.3,0.4-0.3c0.2-0.1,0.4-0.1,0.6-0.2c0.2,0,0.4,0,0.6,0
				s0.4,0.1,0.5,0.1c0.1,0,0.2,0,0.2,0c0,0,0.1,0,0.1,0c0,0,0,0,0.1-0.1l0.1,0l-0.3,0.8l-0.1,0l0-0.1c0,0-0.1-0.1-0.2-0.1
				c-0.1,0-0.3-0.1-0.4-0.1c-0.2,0-0.3,0-0.5,0c-0.2,0-0.4,0-0.4,0.1c-0.1,0.1-0.1,0.1-0.1,0.2c0,0.1,0.1,0.1,0.2,0.2
				c0.1,0,0.3,0,0.5,0c0.3,0,0.5,0,0.7,0.1c0.2,0,0.4,0.1,0.5,0.2c0.1,0.1,0.2,0.3,0.2,0.5c0,0.2,0,0.3-0.1,0.5
				c-0.1,0.2-0.2,0.3-0.4,0.4c-0.2,0.1-0.5,0.2-0.8,0.2c-0.3,0-0.5,0-0.7,0c-0.2,0-0.4-0.1-0.5-0.1c-0.1,0-0.1,0-0.2,0
				c0,0,0,0-0.1,0c0,0,0,0,0,0.1l-0.1,0L32.8,21.5L32.8,21.5z"/>
		</g>
		<g>
			<path class="st2" d="M36.7,22.4c0.1,0,0.1,0,0.1,0c0,0,0,0,0-0.1l0-2l-0.9,0c0,0,0,0-0.1,0c0,0,0,0.1,0,0.1l-0.1,0l0-0.9l0.1,0
				c0,0.1,0,0.1,0,0.1c0,0,0,0,0.1,0l2.5,0.1c0,0,0,0,0.1,0c0,0,0-0.1,0-0.1l0.1,0l0,0.9l-0.1,0c0-0.1,0-0.1,0-0.1c0,0,0,0-0.1,0
				l-0.9,0l0,2c0,0,0,0.1,0,0.1c0,0,0.1,0,0.1,0l0,0.1L36.7,22.4L36.7,22.4z"/>
		</g>
		<g>
			<path class="st2" d="M40.2,22.6c0,0,0.1,0,0.1,0l0,0.1l-1-0.1l0-0.1c0.1,0,0.1,0,0.1,0c0,0,0,0,0-0.1l0.3-2.5c0,0,0-0.1,0-0.1
				c0,0-0.1,0-0.1,0l0-0.1l1.9,0.2c0.4,0,0.6,0.1,0.8,0.3c0.2,0.2,0.2,0.4,0.2,0.7c0,0.4-0.3,0.7-0.8,0.8l0.5,0.9
				c0,0.1,0.1,0.1,0.1,0.1l0,0.1l-1.1-0.1l0-0.1c0.1,0,0.1,0,0.1-0.1c0,0-0.1-0.2-0.3-0.6c-0.1-0.2-0.2-0.3-0.2-0.3l-0.5-0.1
				L40.2,22.6C40.2,22.5,40.2,22.6,40.2,22.6z M41.2,21.2c0.1,0,0.2,0,0.3,0c0.1,0,0.1-0.1,0.1-0.2s0-0.2-0.1-0.2
				c-0.1-0.1-0.2-0.1-0.3-0.1l-0.9-0.1l-0.1,0.6L41.2,21.2z"/>
		</g>
		<g>
			<path class="st2" d="M45.1,22.5c0-0.1,0-0.1-0.1-0.2l-0.9-0.2L44,22.6l1.6,0.4c0,0,0,0,0.1,0c0,0,0-0.1,0.1-0.1l0.1,0l-0.2,0.9
				l-0.1,0c0,0,0-0.1,0-0.1c0,0,0,0-0.1,0L43,23l0-0.1c0.1,0,0.1,0,0.1,0c0,0,0,0,0-0.1l0.5-2.4c0,0,0-0.1,0-0.1c0,0-0.1,0-0.1-0.1
				l0-0.1l2.5,0.6c0,0,0,0,0.1,0c0,0,0-0.1,0.1-0.1l0.1,0L46,21.7l-0.1,0c0-0.1,0-0.1,0-0.1c0,0,0,0-0.1,0l-1.6-0.4l-0.1,0.4
				l0.9,0.2c0.1,0,0.1,0,0.2-0.1l0.1,0L45.1,22.5L45.1,22.5z"/>
		</g>
		<g>
			<path class="st2" d="M48.5,23.6c0-0.1,0-0.1-0.1-0.2l-0.9-0.3l-0.2,0.5l1.5,0.6c0,0,0,0,0.1,0c0,0,0-0.1,0.1-0.1l0.1,0l-0.3,0.9
				l-0.1,0c0,0,0-0.1,0-0.1c0,0,0,0,0,0l-2.4-0.9l0-0.1c0.1,0,0.1,0,0.1,0c0,0,0,0,0-0.1l0.8-2.3c0,0,0-0.1,0-0.1c0,0,0,0-0.1-0.1
				l0-0.1l2.4,0.9c0,0,0,0,0.1,0s0,0,0.1-0.1l0.1,0l-0.3,0.9l-0.1,0c0-0.1,0-0.1,0-0.1c0,0,0,0,0,0l-1.5-0.6l-0.1,0.4l0.9,0.3
				c0.1,0,0.1,0,0.2-0.1l0.1,0L48.5,23.6L48.5,23.6z"/>
		</g>
		<g>
			<path class="st2" d="M50,25.4c0.1,0,0.1,0,0.1,0c0,0,0,0,0.1,0l1-1.7l-0.8-0.5c0,0,0,0-0.1,0c0,0,0,0-0.1,0.1l-0.1,0l0.5-0.8
				l0.1,0c0,0.1,0,0.1,0,0.1c0,0,0,0,0,0.1l2.2,1.3c0,0,0,0,0.1,0c0,0,0,0,0.1-0.1l0.1,0l-0.5,0.8l-0.1,0c0-0.1,0-0.1,0-0.1
				c0,0,0,0,0-0.1l-0.8-0.5l-1,1.7c0,0,0,0,0,0.1c0,0,0,0.1,0.1,0.1l0,0.1L50,25.4L50,25.4z"/>
		</g>
	</g>
</g>
</svg>
